<svg width="134" height="88" viewBox="0 0 134 88" fill="none" xmlns="http://www.w3.org/2000/svg">
<path d="M71 26.5L73.5 7C73.5 7 77.0547 17.9411 76.5 27.5C75.7586 40.2759 66.3146 57.5 66.3146 57.5C66.3146 57.5 70.1854 34.8909 71 26.5Z" fill="url(#paint0_linear_12_2)"/>
<ellipse cx="74" cy="3" rx="1.93046" ry="2.0672" transform="rotate(-1.959 74 3)" fill="url(#paint1_linear_12_2)"/>
<path d="M73.9167 25.7643C74.854 24.8533 76.0343 23.774 77.5 22.5C78.516 21.6169 76.6236 28.5696 76.6236 28.5696C76.6236 28.5696 73.5598 35.4159 73.5598 30.5C73.5598 30.2722 73.5557 30.0509 73.5477 29.836C71.1909 30.6336 68.9663 30.8383 73.021 26.6589C70.665 19.7463 61.3859 25 61.3859 25C61.3859 25 59.7985 26.611 58.9602 27.7845C55.433 32.7216 53.2827 37.4864 55.8156 43C57.1503 45.9053 60.0402 46.0998 61.3859 49C64.9091 56.5928 50.9865 67.7418 50.9865 67.7418L55.8156 61.1171L44.6974 67.7418L50.9865 61.1171L38.5206 67.7418L30.0978 74.3665L40.7668 63.0373L21.6749 77.4389L36.2745 63.0373L9.32132 83.1035L30.0978 63.0373L12.1019 77.9628C5.64383 83.9202 0 88 0 88L12.1019 77.9628C19.3521 71.2749 27.6285 62.2206 30.0978 53.9164C32.9664 44.2688 27.2361 38.1245 30.0978 28.5696C31.681 23.2832 33.5018 20.5743 36.2745 15.7043C39.1812 10.5993 43.4385 5.77703 50.9865 6.00797C54.2882 6.109 58.9602 8.19335 58.9602 8.19335L73.9167 25.7643Z" fill="url(#paint2_linear_12_2)"/>
<path d="M71 27.2962C71 27.2962 84.6021 16.0407 86.9504 13.951C88.7998 12.3051 89.5998 11.0473 91.7245 9.78057C93.5282 8.7053 94.7265 8.46052 96.7063 7.76489C98.9905 6.96227 100.238 6.1194 102.657 6.02723C105.44 5.92115 107.373 6.05216 109.576 7.76489C112.562 10.0876 112.758 16.9397 112.758 16.9397C112.758 16.9397 111.815 26.2511 112.758 32.0921C113.702 37.9384 117.533 46.4799 117.533 46.4799L127.289 61.4238L134 69L119.332 54.6817L129.433 66.0112L119.332 56.8364L125.697 63.648L112.758 52.666L122.307 62.4664L107.638 50.2333L110.143 53.0987L115.457 58.296L117.117 61.0763L110.143 53.0987L104.94 48.0091L112.758 58.296L102.657 49.0517L107.638 54.6817L99.4739 46.4799L104.94 54.6817L96.7063 46.4799L101.342 52.666L94.077 44.9508L98.1593 50.2333L93.2467 46.4799L95.6684 49.0517L90.8149 45.1111L91.7245 49.0517L90.6175 48.0091V44.9508L90.8149 45.1111L90.6175 44.2557H89.0953L86.9504 32.9262C86.9504 32.9262 86.6331 29.1536 85.2898 27.2962C82.0195 22.7743 71 27.2962 71 27.2962Z" fill="url(#paint3_linear_12_2)"/>
<defs>
<linearGradient id="paint0_linear_12_2" x1="73.6548" y1="1.86248" x2="75.7511" y2="63.1495" gradientUnits="userSpaceOnUse">
<stop stop-color="#484164"/>
<stop offset="1"/>
</linearGradient>
<linearGradient id="paint1_linear_12_2" x1="74" y1="0.9328" x2="74" y2="5.0672" gradientUnits="userSpaceOnUse">
<stop stop-color="#484164"/>
<stop offset="1"/>
</linearGradient>
<linearGradient id="paint2_linear_12_2" x1="38.296" y1="-0.233441" x2="38.296" y2="88" gradientUnits="userSpaceOnUse">
<stop stop-color="#484164"/>
<stop offset="1"/>
</linearGradient>
<linearGradient id="paint3_linear_12_2" x1="107.5" y1="6.02723" x2="107.5" y2="69" gradientUnits="userSpaceOnUse">
<stop stop-color="#484164"/>
<stop offset="1"/>
</linearGradient>
</defs>
</svg>
